<svg width="183" height="45" viewBox="0 0 183 45" fill="none" xmlns="http://www.w3.org/2000/svg">
<path d="M11.6644 34.5193C9.85108 34.5193 8.22441 34.1993 6.78441 33.5593C5.34441 32.8926 4.19774 31.9993 3.34441 30.8793C2.51774 29.7593 2.06441 28.5193 1.98441 27.1593H7.62441C7.73108 28.0126 8.14441 28.7193 8.86441 29.2793C9.61107 29.8393 10.5311 30.1193 11.6244 30.1193C12.6911 30.1193 13.5177 29.906 14.1044 29.4793C14.7177 29.0526 15.0244 28.506 15.0244 27.8393C15.0244 27.1193 14.6511 26.586 13.9044 26.2393C13.1844 25.866 12.0244 25.466 10.4244 25.0393C8.77107 24.6393 7.41107 24.226 6.34441 23.7993C5.30441 23.3726 4.39774 22.7193 3.62441 21.8393C2.87774 20.9593 2.50441 19.7726 2.50441 18.2793C2.50441 17.0526 2.85107 15.9326 3.54441 14.9193C4.26441 13.906 5.27774 13.106 6.58441 12.5193C7.91774 11.9326 9.47774 11.6393 11.2644 11.6393C13.9044 11.6393 16.0111 12.306 17.5844 13.6393C19.1577 14.946 20.0244 16.7193 20.1844 18.9593H14.8244C14.7444 18.0793 14.3711 17.386 13.7044 16.8793C13.0644 16.346 12.1977 16.0793 11.1044 16.0793C10.0911 16.0793 9.30441 16.266 8.74441 16.6393C8.21107 17.0126 7.94441 17.5326 7.94441 18.1993C7.94441 18.946 8.31774 19.5193 9.06441 19.9193C9.81108 20.2926 10.9711 20.6793 12.5444 21.0793C14.1444 21.4793 15.4644 21.8926 16.5044 22.3193C17.5444 22.746 18.4377 23.4126 19.1844 24.3193C19.9577 25.1993 20.3577 26.3726 20.3844 27.8393C20.3844 29.1193 20.0244 30.266 19.3044 31.2793C18.6111 32.2926 17.5977 33.0926 16.2644 33.6793C14.9577 34.2393 13.4244 34.5193 11.6644 34.5193ZM44.5813 11.9993L30.8613 44.6393H24.9013L29.7013 33.5993L20.8213 11.9993H27.1013L32.8213 27.4793L38.6213 11.9993H44.5813ZM58.28 11.6793C60.92 11.6793 63.0534 12.5193 64.68 14.1993C66.3067 15.8526 67.12 18.1726 67.12 21.1593V34.1593H61.52V21.9193C61.52 20.1593 61.08 18.8126 60.2 17.8793C59.32 16.9193 58.12 16.4393 56.6 16.4393C55.0534 16.4393 53.8267 16.9193 52.92 17.8793C52.04 18.8126 51.6 20.1593 51.6 21.9193V34.1593H46V11.9993H51.6V14.7593C52.3467 13.7993 53.2934 13.0526 54.44 12.5193C55.6134 11.9593 56.8934 11.6793 58.28 11.6793ZM80.6853 34.5193C78.552 34.5193 76.632 34.0526 74.9253 33.1193C73.2187 32.1593 71.872 30.8126 70.8853 29.0793C69.9253 27.346 69.4453 25.346 69.4453 23.0793C69.4453 20.8126 69.9387 18.8126 70.9253 17.0793C71.9387 15.346 73.312 14.0126 75.0453 13.0793C76.7787 12.1193 78.712 11.6393 80.8453 11.6393C82.9787 11.6393 84.912 12.1193 86.6453 13.0793C88.3787 14.0126 89.7387 15.346 90.7253 17.0793C91.7387 18.8126 92.2453 20.8126 92.2453 23.0793C92.2453 25.346 91.7253 27.346 90.6853 29.0793C89.672 30.8126 88.2853 32.1593 86.5253 33.1193C84.792 34.0526 82.8453 34.5193 80.6853 34.5193ZM80.6853 29.6393C81.6987 29.6393 82.6453 29.3993 83.5253 28.9193C84.432 28.4126 85.152 27.666 85.6853 26.6793C86.2187 25.6926 86.4853 24.4926 86.4853 23.0793C86.4853 20.9726 85.9253 19.3593 84.8053 18.2393C83.712 17.0926 82.3653 16.5193 80.7653 16.5193C79.1653 16.5193 77.8187 17.0926 76.7253 18.2393C75.6587 19.3593 75.1253 20.9726 75.1253 23.0793C75.1253 25.186 75.6453 26.8126 76.6853 27.9593C77.752 29.0793 79.0853 29.6393 80.6853 29.6393ZM100.353 15.1993C101.073 14.186 102.06 13.346 103.313 12.6793C104.593 11.986 106.046 11.6393 107.673 11.6393C109.566 11.6393 111.273 12.106 112.793 13.0393C114.34 13.9726 115.553 15.306 116.433 17.0393C117.34 18.746 117.793 20.7326 117.793 22.9993C117.793 25.266 117.34 27.2793 116.433 29.0393C115.553 30.7726 114.34 32.1193 112.793 33.0793C111.273 34.0393 109.566 34.5193 107.673 34.5193C106.046 34.5193 104.606 34.186 103.353 33.5193C102.126 32.8526 101.126 32.0126 100.353 30.9993V44.7193H94.7532V11.9993H100.353V15.1993ZM112.073 22.9993C112.073 21.666 111.793 20.5193 111.233 19.5593C110.7 18.5726 109.98 17.826 109.073 17.3193C108.193 16.8126 107.233 16.5593 106.193 16.5593C105.18 16.5593 104.22 16.826 103.313 17.3593C102.433 17.866 101.713 18.6126 101.153 19.5993C100.62 20.586 100.353 21.746 100.353 23.0793C100.353 24.4126 100.62 25.5726 101.153 26.5593C101.713 27.546 102.433 28.306 103.313 28.8393C104.22 29.346 105.18 29.5993 106.193 29.5993C107.233 29.5993 108.193 29.3326 109.073 28.7993C109.98 28.266 110.7 27.506 111.233 26.5193C111.793 25.5326 112.073 24.3593 112.073 22.9993ZM128.743 34.5193C126.929 34.5193 125.303 34.1993 123.863 33.5593C122.423 32.8926 121.276 31.9993 120.423 30.8793C119.596 29.7593 119.143 28.5193 119.063 27.1593H124.703C124.809 28.0126 125.223 28.7193 125.943 29.2793C126.689 29.8393 127.609 30.1193 128.703 30.1193C129.769 30.1193 130.596 29.906 131.183 29.4793C131.796 29.0526 132.103 28.506 132.103 27.8393C132.103 27.1193 131.729 26.586 130.983 26.2393C130.263 25.866 129.103 25.466 127.503 25.0393C125.849 24.6393 124.489 24.226 123.423 23.7993C122.383 23.3726 121.476 22.7193 120.703 21.8393C119.956 20.9593 119.583 19.7726 119.583 18.2793C119.583 17.0526 119.929 15.9326 120.623 14.9193C121.343 13.906 122.356 13.106 123.663 12.5193C124.996 11.9326 126.556 11.6393 128.343 11.6393C130.983 11.6393 133.089 12.306 134.663 13.6393C136.236 14.946 137.103 16.7193 137.263 18.9593H131.903C131.823 18.0793 131.449 17.386 130.783 16.8793C130.143 16.346 129.276 16.0793 128.183 16.0793C127.169 16.0793 126.383 16.266 125.823 16.6393C125.289 17.0126 125.023 17.5326 125.023 18.1993C125.023 18.946 125.396 19.5193 126.143 19.9193C126.889 20.2926 128.049 20.6793 129.623 21.0793C131.223 21.4793 132.543 21.8926 133.583 22.3193C134.623 22.746 135.516 23.4126 136.263 24.3193C137.036 25.1993 137.436 26.3726 137.463 27.8393C137.463 29.1193 137.103 30.266 136.383 31.2793C135.689 32.2926 134.676 33.0926 133.343 33.6793C132.036 34.2393 130.503 34.5193 128.743 34.5193ZM161.659 11.9993L147.939 44.6393H141.979L146.779 33.5993L137.899 11.9993H144.179L149.899 27.4793L155.699 11.9993H161.659ZM171.558 34.5193C169.745 34.5193 168.118 34.1993 166.678 33.5593C165.238 32.8926 164.091 31.9993 163.238 30.8793C162.411 29.7593 161.958 28.5193 161.878 27.1593H167.518C167.625 28.0126 168.038 28.7193 168.758 29.2793C169.505 29.8393 170.425 30.1193 171.518 30.1193C172.585 30.1193 173.411 29.906 173.998 29.4793C174.611 29.0526 174.918 28.506 174.918 27.8393C174.918 27.1193 174.545 26.586 173.798 26.2393C173.078 25.866 171.918 25.466 170.318 25.0393C168.665 24.6393 167.305 24.226 166.238 23.7993C165.198 23.3726 164.291 22.7193 163.518 21.8393C162.771 20.9593 162.398 19.7726 162.398 18.2793C162.398 17.0526 162.745 15.9326 163.438 14.9193C164.158 13.906 165.171 13.106 166.478 12.5193C167.811 11.9326 169.371 11.6393 171.158 11.6393C173.798 11.6393 175.905 12.306 177.478 13.6393C179.051 14.946 179.918 16.7193 180.078 18.9593H174.718C174.638 18.0793 174.265 17.386 173.598 16.8793C172.958 16.346 172.091 16.0793 170.998 16.0793C169.985 16.0793 169.198 16.266 168.638 16.6393C168.105 17.0126 167.838 17.5326 167.838 18.1993C167.838 18.946 168.211 19.5193 168.958 19.9193C169.705 20.2926 170.865 20.6793 172.438 21.0793C174.038 21.4793 175.358 21.8926 176.398 22.3193C177.438 22.746 178.331 23.4126 179.078 24.3193C179.851 25.1993 180.251 26.3726 180.278 27.8393C180.278 29.1193 179.918 30.266 179.198 31.2793C178.505 32.2926 177.491 33.0926 176.158 33.6793C174.851 34.2393 173.318 34.5193 171.558 34.5193Z" fill="#42459C"/>
<circle cx="50.9295" cy="4.9389" r="3.04043" fill="#42459C"/>
<circle cx="61.114" cy="4.9389" r="3.04043" fill="#42459C"/>
</svg>
