<svg width="43" height="39" viewBox="0 0 43 39" fill="none" xmlns="http://www.w3.org/2000/svg">
<circle cx="19.9244" cy="19.3832" r="19.2308" fill="#E3E3FE"/>
<path d="M20.0742 16.6865H20.9498C21.066 16.6865 21.1774 16.7326 21.2595 16.8146C21.3417 16.8967 21.3878 17.0081 21.3879 17.1242C21.3879 17.2403 21.3418 17.3517 21.2598 17.4339C21.1777 17.516 21.0663 17.5622 20.9502 17.5622L19.1985 17.5622V18.4378L20.0742 18.4379V19.3135H20.9498V18.4379H20.9502C21.1227 18.4379 21.2935 18.4039 21.4529 18.3378C21.6122 18.2718 21.757 18.175 21.879 18.053C22.0009 17.9311 22.0976 17.7862 22.1636 17.6269C22.2296 17.4675 22.2636 17.2967 22.2635 17.1242C22.2635 16.9517 22.2295 16.7809 22.1635 16.6215C22.0974 16.4622 22.0007 16.3174 21.8787 16.1955C21.7567 16.0735 21.6119 15.9768 21.4525 15.9108C21.2931 15.8448 21.1223 15.8108 20.9498 15.8109H20.0742C19.9581 15.8109 19.8467 15.7647 19.7646 15.6826C19.6825 15.6005 19.6364 15.4892 19.6364 15.373C19.6364 15.2569 19.6825 15.1456 19.7646 15.0634C19.8467 14.9813 19.9581 14.9352 20.0742 14.9352H21.8255V14.0596H20.9498V13.1839H20.0742V14.0596C19.7258 14.0596 19.3917 14.1979 19.1454 14.4443C18.8991 14.6906 18.7607 15.0247 18.7607 15.373C18.7607 15.7214 18.8991 16.0555 19.1454 16.3018C19.3917 16.5481 19.7258 16.6865 20.0742 16.6865V16.6865Z" fill="#42459C"/>
<path d="M7.815 24.1296H10.442C10.5581 24.1296 10.6694 24.0835 10.7516 24.0014C10.8337 23.9193 10.8798 23.8079 10.8798 23.6918H11.1743C12.3661 24.5431 13.7935 25.0022 15.2581 25.0053H17.4472V26.3188C17.3311 26.3188 17.2197 26.3649 17.1376 26.447C17.0555 26.5291 17.0094 26.6405 17.0094 26.7566V30.697C17.0094 30.8132 17.0555 30.9245 17.1376 31.0066C17.2197 31.0887 17.3311 31.1349 17.4472 31.1349H23.5768C23.6929 31.1349 23.8043 31.0887 23.8864 31.0066C23.9685 30.9245 24.0146 30.8132 24.0146 30.697V26.7566C24.0146 26.6405 23.9685 26.5291 23.8864 26.447C23.8043 26.3649 23.6929 26.3188 23.5768 26.3188H23.4536C23.6554 25.901 23.8047 25.4598 23.898 25.0053H26.2038C27.613 25.0018 28.9889 24.5763 30.154 23.7835C30.175 23.8814 30.229 23.9692 30.3068 24.0322C30.3847 24.0952 30.4819 24.1296 30.5821 24.1296H33.209C33.3252 24.1296 33.4365 24.0835 33.5186 24.0014C33.6007 23.9193 33.6469 23.8079 33.6469 23.6918V18.4378C33.6469 18.3217 33.6007 18.2104 33.5186 18.1283C33.4365 18.0462 33.3252 18 33.209 18H30.5821C30.4659 18 30.3546 18.0462 30.2725 18.1283C30.1904 18.2104 30.1442 18.3217 30.1442 18.4378V19.3135H29.8129C28.6152 19.3105 27.4582 19.7475 26.5617 20.5415C26.4294 20.1231 26.1456 19.7692 25.766 19.5493V14.9352C25.7646 13.9753 25.4484 13.0422 24.8657 12.2793C24.283 11.5165 23.466 10.9658 22.5402 10.712L22.5797 10.6527C22.945 10.106 23.1396 9.46313 23.139 8.80563C23.139 8.68951 23.0929 8.57814 23.0107 8.49604C22.9286 8.41393 22.8173 8.3678 22.7012 8.3678H18.3229C18.2068 8.3678 18.0954 8.41393 18.0133 8.49604C17.9312 8.57814 17.885 8.68951 17.885 8.80563C17.8844 9.46314 18.0791 10.106 18.4443 10.6528L18.4838 10.712C17.558 10.9658 16.7411 11.5165 16.1584 12.2793C15.5757 13.0422 15.2594 13.9753 15.2581 14.9352V19.2618C15.2583 19.3277 15.2401 19.3922 15.2055 19.4482C15.1708 19.5042 15.1212 19.5494 15.0622 19.5787C14.7977 19.7101 14.5897 19.9329 14.4766 20.2058C13.6492 19.6227 12.6611 19.3109 11.6489 19.3135H10.8798V18.4378C10.8798 18.3217 10.8337 18.2104 10.7516 18.1283C10.6694 18.0462 10.5581 18 10.442 18H7.815C7.69888 18 7.58751 18.0462 7.5054 18.1283C7.4233 18.2104 7.37717 18.3217 7.37717 18.4378V23.6918C7.37717 23.8079 7.4233 23.9193 7.5054 24.0014C7.58751 24.0835 7.69888 24.1296 7.815 24.1296ZM31.0199 18.8757H32.7712V23.254H31.0199V18.8757ZM23.139 30.2592H17.885V27.1944H23.139V30.2592ZM18.3229 26.3188V22.3783H21.3863C20.8212 23.0057 20.5096 23.8207 20.512 24.665V25.178H21.3877V24.665C21.3867 24.3298 21.4523 23.9977 21.5806 23.688C21.7089 23.3782 21.8974 23.097 22.1351 22.8606C22.1757 22.82 22.208 22.7717 22.23 22.7186C22.252 22.6655 22.2633 22.6085 22.2633 22.551V21.0648C22.2633 20.9487 22.3095 20.8373 22.3916 20.7552C22.4737 20.6731 22.585 20.627 22.7012 20.627C22.8173 20.627 22.9286 20.6731 23.0107 20.7552C23.0929 20.8373 23.139 20.9487 23.139 21.0648V23.8645C23.1396 24.7291 22.9047 25.5776 22.4594 26.3188H18.3229ZM29.8129 20.1892H30.1442V22.8161C30.0495 22.8161 29.9573 22.8469 29.8815 22.9037C28.8192 23.697 27.5296 24.1269 26.2038 24.1296H24.0077C24.0118 24.0415 24.0146 23.9532 24.0146 23.8645L26.6416 23.254V22.3783H24.3763C24.1768 22.3783 24.0146 22.1819 24.0146 21.9405C24.0127 21.8213 24.0554 21.7057 24.1344 21.6165C24.1646 21.5818 24.2018 21.5538 24.2434 21.5342C24.2851 21.5146 24.3304 21.5038 24.3764 21.5026H26.6416C26.6991 21.5028 26.756 21.4915 26.8091 21.4695C26.8622 21.4476 26.9105 21.4154 26.9511 21.3747C27.326 20.9977 27.772 20.6988 28.2632 20.4953C28.7544 20.2918 29.2812 20.1877 29.8129 20.1892ZM19.1729 10.167C18.9865 9.88801 18.8595 9.57363 18.7998 9.24345H22.2242C22.1645 9.57363 22.0375 9.88799 21.8512 10.167L21.5878 10.562C21.5214 10.559 21.4548 10.5569 21.3877 10.5569H19.6364C19.5692 10.5569 19.5026 10.559 19.4362 10.562L19.1729 10.167ZM15.4539 20.3618C15.6587 20.2603 15.8309 20.1035 15.9511 19.909C16.0712 19.7146 16.1345 19.4904 16.1337 19.2618V14.9352C16.1348 14.0066 16.5041 13.1163 17.1608 12.4596C17.8174 11.803 18.7077 11.4336 19.6364 11.4326H21.3877C22.3163 11.4336 23.2066 11.803 23.8632 12.4596C24.5199 13.1163 24.8892 14.0066 24.8903 14.9352V19.3136H24.0146V20.1893H24.8903C25.0438 20.1895 25.1945 20.23 25.3274 20.3068C25.4603 20.3837 25.5706 20.4941 25.6474 20.627H24.3763C24.2352 20.6269 24.0953 20.6522 23.9632 20.7016C23.8756 20.3974 23.6812 20.135 23.4156 19.9627C23.15 19.7905 22.8311 19.72 22.5176 19.7642C22.2041 19.8084 21.9172 19.9644 21.7096 20.2033C21.5019 20.4423 21.3876 20.7482 21.3877 21.0648V21.5026H17.8105C17.7197 21.2466 17.5518 21.025 17.33 20.8682C17.1081 20.7115 16.8432 20.6272 16.5716 20.627L15.2619 20.6273C15.2699 20.5708 15.2917 20.5171 15.3251 20.4708C15.3586 20.4246 15.4028 20.3872 15.4539 20.3618ZM11.6489 20.1892C12.1806 20.1877 12.7074 20.2918 13.1986 20.4953C13.6898 20.6988 14.1358 20.9977 14.5107 21.3747C14.5513 21.4154 14.5996 21.4476 14.6527 21.4697C14.7059 21.4917 14.7628 21.503 14.8203 21.503L16.5715 21.5026C16.6876 21.5026 16.799 21.5487 16.8811 21.6308C16.9632 21.7129 17.0094 21.8242 17.0094 21.9403C17.0095 22.0565 16.9634 22.1678 16.8813 22.25C16.7992 22.3321 16.6878 22.3783 16.5717 22.3783H14.3824V23.254L17.4472 23.254V24.1296H15.2581C13.9323 24.1269 12.6426 23.697 11.5803 22.9037C11.5045 22.8469 11.4124 22.8161 11.3176 22.8161H10.8798V20.1892H11.6489ZM8.25282 18.8757H10.0041V23.254H8.25282V18.8757Z" fill="#42459C"/>
<path d="M14.3824 11.8704H13.0689V12.7461H14.3824V11.8704Z" fill="#42459C"/>
<path d="M27.9551 11.8704H26.6416V12.7461H27.9551V11.8704Z" fill="#42459C"/>
<path d="M25.4655 6.73559L24.5367 7.66437L25.1559 8.28356L26.0847 7.35478L25.4655 6.73559Z" fill="#42459C"/>
<path d="M20.9498 4.86514H20.0742V6.17863H20.9498V4.86514Z" fill="#42459C"/>
<path d="M15.5586 6.73557L14.9393 7.35474L15.8681 8.28356L16.4873 7.66439L15.5586 6.73557Z" fill="#42459C"/>
</svg>
