<svg width="39" height="39" viewBox="0 0 39 39" fill="none" xmlns="http://www.w3.org/2000/svg">
<circle cx="19.2308" cy="19.5379" r="19.2308" fill="#E3E3FE"/>
<g clip-path="url(#clip0)">
<path d="M9.70451 27.2056V27.6026C9.70451 27.8218 9.88224 27.9995 10.1015 27.9995H28.3601C28.5793 27.9995 28.757 27.8218 28.757 27.6025V27.2056H9.70451V27.2056Z" fill="#42459C"/>
<path d="M17.2461 16.0917H10.8953C10.6761 16.0917 10.4984 16.2694 10.4984 16.4886V27.6026C10.4984 27.8218 10.6761 27.9995 10.8953 27.9995H17.2461C17.4653 27.9995 17.6431 27.8218 17.6431 27.6025V16.4886C17.643 16.2694 17.4653 16.0917 17.2461 16.0917ZM16.8492 27.2056H11.2922V16.8855H16.8492V27.2056Z" fill="#42459C"/>
<path d="M27.5662 11.3286H21.2154C20.9962 11.3286 20.8185 11.5063 20.8185 11.7255V27.6026C20.8185 27.8218 20.9962 27.9995 21.2154 27.9995H27.5662C27.7854 27.9995 27.9632 27.8218 27.9632 27.6026V11.7255C27.9632 11.5063 27.7854 11.3286 27.5662 11.3286ZM27.1693 27.2056H21.6123V12.1224H27.1693V27.2056V27.2056Z" fill="#42459C"/>
<path d="M24.7877 8.94699H14.0707C13.8515 8.94699 13.6738 9.12471 13.6738 9.34393V15.2978H14.4676V9.74083H24.3908V10.5347H25.1846V9.34389C25.1846 9.12471 25.0069 8.94699 24.7877 8.94699Z" fill="#42459C"/>
<path d="M12.8799 17.6794H12.0861V24.8241H12.8799V17.6794Z" fill="#42459C"/>
<path d="M14.4676 17.6794H13.6738V24.8241H14.4676V17.6794Z" fill="#42459C"/>
<path d="M16.0553 17.6794H15.2615V24.8241H16.0553V17.6794Z" fill="#42459C"/>
<path d="M25.5816 13.3132H21.2154V14.107H25.5816V13.3132Z" fill="#42459C"/>
<path d="M25.5816 15.2978H21.2154V16.0917H25.5816V15.2978Z" fill="#42459C"/>
<path d="M25.5816 17.2825H21.2154V18.0763H25.5816V17.2825Z" fill="#42459C"/>
<path d="M25.5816 19.2671H21.2154V20.0609H25.5816V19.2671Z" fill="#42459C"/>
<path d="M25.5816 21.2517H21.2154V22.0456H25.5816V21.2517Z" fill="#42459C"/>
<path d="M25.5816 23.2364H21.2154V24.0302H25.5816V23.2364Z" fill="#42459C"/>
<path d="M16.4523 10.9316H15.6584V12.1224H16.4523V10.9316Z" fill="#42459C"/>
<path d="M16.4523 13.3132H15.6584V14.5039H16.4523V13.3132Z" fill="#42459C"/>
<path d="M18.04 13.3132H17.2461V14.5039H18.04V13.3132Z" fill="#42459C"/>
<path d="M18.04 10.9316H17.2461V12.1224H18.04V10.9316Z" fill="#42459C"/>
<path d="M19.6277 10.9316H18.8338V12.1224H19.6277V10.9316Z" fill="#42459C"/>
<path d="M19.6277 13.3132H18.8338V14.5039H19.6277V13.3132Z" fill="#42459C"/>
<path d="M19.6277 15.6947H18.8338V16.8855H19.6277V15.6947Z" fill="#42459C"/>
<path d="M19.6277 18.0763H18.8338V19.2671H19.6277V18.0763Z" fill="#42459C"/>
<path d="M19.6277 20.4579H18.8338V21.6486H19.6277V20.4579Z" fill="#42459C"/>
<path d="M19.6277 22.8394H18.8338V24.0302H19.6277V22.8394Z" fill="#42459C"/>
<path d="M24.7877 25.221H22.8031C22.5839 25.221 22.4062 25.3987 22.4062 25.6179V27.6025H23.2V26.0148H24.3908V27.6025H25.1847V25.6179C25.1847 25.3987 25.0069 25.221 24.7877 25.221Z" fill="#42459C"/>
<path d="M15.6584 25.6179H12.483C12.2638 25.6179 12.0861 25.7956 12.0861 26.0149V27.6026H12.8799V26.4118H15.2615V27.6026H16.0553V26.0149C16.0554 25.7956 15.8776 25.6179 15.6584 25.6179Z" fill="#42459C"/>
</g>
<defs>
<clipPath id="clip0">
<rect width="23.0769" height="23.0769" fill="white" transform="translate(7.69231 4.92255)"/>
</clipPath>
</defs>
</svg>
