<svg width="40" height="41" viewBox="0 0 40 41" fill="none" xmlns="http://www.w3.org/2000/svg">
<circle cx="19.746" cy="21.166" r="19.5986" fill="#E3E3FE"/>
<mask id="path-2-inside-1" fill="white">
<path d="M29.8879 22.3398C29.8383 22.2166 29.7528 22.1111 29.6426 22.037C29.5325 21.9628 29.4026 21.9234 29.2697 21.9237H28.9254C28.3424 21.9242 27.7692 22.0736 27.2602 22.3578L24.7455 23.7639H24.0283C23.9447 23.3074 23.7038 22.8945 23.3475 22.5972C22.9911 22.2998 22.5418 22.1367 22.0777 22.1362H17.5484C17.4968 22.1362 17.4458 22.1475 17.399 22.1692C17.3522 22.191 17.3107 22.2226 17.2773 22.262L15.905 23.8885C15.8721 23.8496 15.8311 23.8183 15.7849 23.7968C15.7387 23.7753 15.6884 23.7641 15.6375 23.7639H8.92361C8.8296 23.7639 8.73944 23.8013 8.67297 23.8678C8.60649 23.9342 8.56915 24.0244 8.56915 24.1184C8.56915 24.2124 8.60649 24.3026 8.67297 24.3691C8.73944 24.4355 8.8296 24.4729 8.92361 24.4729H13.2542V29.5531H8.92361C8.8296 29.5531 8.73944 29.5905 8.67297 29.657C8.60649 29.7234 8.56915 29.8136 8.56915 29.9076C8.56915 30.0016 8.60649 30.0918 8.67297 30.1583C8.73944 30.2247 8.8296 30.2621 8.92361 30.2621H15.6375C15.7315 30.2621 15.8216 30.2247 15.8881 30.1583C15.9546 30.0918 15.9919 30.0016 15.9919 29.9076V28.2078L23.2207 27.876C23.2278 27.876 23.2347 27.876 23.2409 27.8744C24.3778 27.7531 25.441 27.2538 26.2604 26.4565L29.7356 23.068C29.8307 22.9756 29.896 22.8569 29.9232 22.7272C29.9503 22.5974 29.9381 22.4625 29.8879 22.3398V22.3398ZM15.2838 29.5531H13.9632V24.4729H15.2838V29.5531ZM25.7662 25.9499C25.0635 26.6334 24.1523 27.0623 23.1777 27.1683L15.9927 27.4982V24.8853L17.7145 22.8454H22.0777C22.3681 22.846 22.6497 22.9457 22.8758 23.128C23.1019 23.3103 23.2591 23.5643 23.3213 23.848L19.7295 24.7297C19.6455 24.7505 19.5719 24.8012 19.5228 24.8724C19.4736 24.9436 19.4521 25.0303 19.4625 25.1162C19.4728 25.2021 19.5142 25.2813 19.5789 25.3388C19.6435 25.3963 19.727 25.4281 19.8135 25.4283C19.8421 25.4284 19.8706 25.4249 19.8984 25.418L23.7481 24.4729H24.8379C24.8984 24.4729 24.958 24.4574 25.0109 24.4279L27.6064 22.9766C28.0096 22.7512 28.4637 22.6327 28.9256 22.6323H29.1687L25.7662 25.9499Z"/>
</mask>
<path d="M29.2697 21.9237L29.2697 26.9238L29.2836 26.9237L29.2697 21.9237ZM28.9254 21.9237L28.9254 16.9237L28.9216 16.9237L28.9254 21.9237ZM27.2602 22.3578L24.8227 17.9922L24.82 17.9937L27.2602 22.3578ZM24.7455 23.7639V28.7639H26.0485L27.1857 28.128L24.7455 23.7639ZM24.0283 23.7639L19.1099 24.6639L19.8602 28.7639H24.0283V23.7639ZM22.0777 22.1362L22.0827 17.1362H22.0777V22.1362ZM17.5484 22.1362L17.5484 17.1362L17.5456 17.1362L17.5484 22.1362ZM17.2773 22.262L13.4604 19.0322L13.4558 19.0377L17.2773 22.262ZM15.905 23.8885L12.0889 27.1192L15.9116 31.6345L19.7266 27.1128L15.905 23.8885ZM15.6375 23.7639L15.6532 18.764L15.6453 18.7639H15.6375V23.7639ZM8.92361 23.7639L8.92361 18.7639L8.92361 23.7639ZM8.56915 24.1184H13.5691H8.56915ZM13.2542 24.4729H18.2542V19.4729H13.2542V24.4729ZM13.2542 29.5531V34.5531H18.2542V29.5531H13.2542ZM8.92361 29.5531L8.92361 24.5531L8.92361 24.5531L8.92361 29.5531ZM8.92361 30.2621L8.92361 35.2621H8.92361V30.2621ZM15.9919 28.2078L15.7627 23.213L10.9919 23.432V28.2078H15.9919ZM23.2207 27.876V22.876H23.106L22.9914 22.8813L23.2207 27.876ZM23.2409 27.8744L22.7107 22.9026L22.3463 22.9414L21.9915 23.033L23.2409 27.8744ZM26.2604 26.4565L29.7475 30.0398L29.751 30.0364L26.2604 26.4565ZM29.7356 23.068L26.2522 19.4811L26.245 19.4881L29.7356 23.068ZM15.2838 29.5531V34.5531H20.2838V29.5531H15.2838ZM13.9632 29.5531H8.96316V34.5531H13.9632V29.5531ZM13.9632 24.4729V19.4729H8.96316V24.4729H13.9632ZM15.2838 24.4729H20.2838V19.4729H15.2838V24.4729ZM25.7662 25.9499L29.2524 29.534L29.2568 29.5298L25.7662 25.9499ZM23.1777 27.1683L23.4071 32.163L23.563 32.1558L23.7182 32.139L23.1777 27.1683ZM15.9927 27.4982H10.9927V32.7331L16.2221 32.493L15.9927 27.4982ZM15.9927 24.8853L12.1718 21.6604L10.9927 23.0573V24.8853H15.9927ZM17.7145 22.8454V17.8454H15.3917L13.8935 19.6204L17.7145 22.8454ZM22.0777 22.8454L22.0885 17.8454H22.0777V22.8454ZM23.3213 23.848L24.5133 28.7038L29.2504 27.541L28.2052 22.7766L23.3213 23.848ZM19.7295 24.7297L18.5375 19.8739L18.5312 19.8754L19.7295 24.7297ZM19.8135 25.4283L19.801 30.4283L19.8069 30.4283L19.8135 25.4283ZM19.8984 25.418L18.7063 20.5622L18.6926 20.5656L19.8984 25.418ZM23.7481 24.4729V19.4729H23.1434L22.556 19.6171L23.7481 24.4729ZM24.8379 24.4729L24.8413 19.4729H24.8379V24.4729ZM25.0109 24.4279L27.4488 28.7933L27.4511 28.792L25.0109 24.4279ZM27.6064 22.9766L25.1664 18.6124L25.1662 18.6125L27.6064 22.9766ZM28.9256 22.6323L28.9256 17.6323L28.9213 17.6323L28.9256 22.6323ZM29.1687 22.6323L32.6593 26.2122L41.4587 17.6323H29.1687V22.6323ZM34.5252 20.4699C34.1018 19.42 33.3735 18.521 32.4343 17.8889L26.851 26.1851C26.1321 25.7013 25.5748 25.0132 25.2507 24.2096L34.5252 20.4699ZM32.4343 17.8889C31.4951 17.2568 30.388 16.9206 29.2559 16.9238L29.2836 26.9237C28.4171 26.9261 27.5698 26.6688 26.851 26.1851L32.4343 17.8889ZM29.2697 16.9237H28.9254V26.9237H29.2697V16.9237ZM28.9216 16.9237C27.4866 16.9248 26.0756 17.2926 24.8227 17.9922L29.6977 26.7234C29.4628 26.8546 29.1983 26.9235 28.9292 26.9237L28.9216 16.9237ZM24.82 17.9937L22.3053 19.3999L27.1857 28.128L29.7004 26.7219L24.82 17.9937ZM24.7455 18.7639H24.0283V28.7639H24.7455V18.7639ZM28.9466 22.8639C28.6526 21.2574 27.805 19.8046 26.551 18.7582L20.144 26.4361C19.6027 25.9844 19.2368 25.3574 19.1099 24.6639L28.9466 22.8639ZM26.551 18.7582C25.297 17.7118 23.716 17.1379 22.0827 17.1362L22.0726 27.1362C21.3676 27.1355 20.6852 26.8878 20.144 26.4361L26.551 18.7582ZM22.0777 17.1362H17.5484V27.1362H22.0777V17.1362ZM17.5456 17.1362C16.7678 17.1366 15.9995 17.3065 15.294 17.6339L19.5039 26.7046C18.8921 26.9885 18.2257 27.1358 17.5511 27.1362L17.5456 17.1362ZM15.294 17.6339C14.5885 17.9614 13.9628 18.4385 13.4605 19.0322L21.0942 25.4918C20.6585 26.0067 20.1158 26.4206 19.5039 26.7046L15.294 17.6339ZM13.4558 19.0377L12.0835 20.6642L19.7266 27.1128L21.0989 25.4863L13.4558 19.0377ZM19.7211 20.6578C19.2205 20.0665 18.5976 19.591 17.8952 19.264L13.6746 28.3297C13.0647 28.0457 12.5237 27.6327 12.0889 27.1192L19.7211 20.6578ZM17.8952 19.264C17.1929 18.937 16.4279 18.7664 15.6532 18.764L15.6217 28.7639C14.9489 28.7618 14.2846 28.6136 13.6746 28.3297L17.8952 19.264ZM15.6375 18.7639H8.92361V28.7639H15.6375V18.7639ZM8.92361 18.7639C7.5035 18.7639 6.14158 19.3281 5.13743 20.3322L12.2085 27.4033C11.3373 28.2745 10.1557 28.7639 8.92361 28.7639L8.92361 18.7639ZM5.13743 20.3322C4.13328 21.3364 3.56915 22.6983 3.56915 24.1184H13.5691C13.5691 25.3505 13.0797 26.5321 12.2085 27.4033L5.13743 20.3322ZM3.56915 24.1184C3.56915 25.5385 4.13328 26.9004 5.13743 27.9046L12.2085 20.8335C13.0797 21.7047 13.5691 22.8863 13.5691 24.1184L3.56915 24.1184ZM5.13743 27.9046C6.14158 28.9087 7.5035 29.4729 8.92361 29.4729V19.4729C10.1557 19.4729 11.3373 19.9623 12.2085 20.8335L5.13743 27.9046ZM8.92361 29.4729H13.2542V19.4729H8.92361V29.4729ZM8.25422 24.4729V29.5531H18.2542V24.4729H8.25422ZM13.2542 24.5531H8.92361V34.5531H13.2542V24.5531ZM8.92361 24.5531C7.5035 24.5531 6.14158 25.1173 5.13743 26.1214L12.2085 33.1925C11.3373 34.0637 10.1557 34.5531 8.92361 34.5531L8.92361 24.5531ZM5.13743 26.1214C4.13328 27.1256 3.56915 28.4875 3.56915 29.9076H13.5691C13.5691 31.1397 13.0797 32.3213 12.2085 33.1925L5.13743 26.1214ZM3.56915 29.9076C3.56915 31.3277 4.13328 32.6896 5.13743 33.6938L12.2085 26.6227C13.0797 27.4939 13.5691 28.6755 13.5691 29.9076H3.56915ZM5.13743 33.6938C6.14158 34.6979 7.5035 35.2621 8.92361 35.2621L8.92361 25.2621C10.1557 25.2621 11.3373 25.7515 12.2085 26.6227L5.13743 33.6938ZM8.92361 35.2621H15.6375V25.2621H8.92361V35.2621ZM15.6375 35.2621C17.0576 35.2621 18.4195 34.6979 19.4236 33.6938L12.3526 26.6227C13.2238 25.7515 14.4054 25.2621 15.6375 25.2621V35.2621ZM19.4236 33.6938C20.4278 32.6896 20.9919 31.3277 20.9919 29.9076H10.9919C10.9919 28.6755 11.4814 27.4939 12.3526 26.6227L19.4236 33.6938ZM20.9919 29.9076V28.2078H10.9919V29.9076H20.9919ZM16.2212 33.2025L23.4499 32.8707L22.9914 22.8813L15.7627 23.213L16.2212 33.2025ZM23.2207 32.876C23.2208 32.876 23.2235 32.876 23.2265 32.876C23.2299 32.876 23.2351 32.876 23.2414 32.876C23.2538 32.8759 23.274 32.8758 23.2988 32.8754C23.3469 32.8747 23.4285 32.8729 23.5293 32.8669C23.7226 32.8553 24.07 32.8242 24.4903 32.7158L21.9915 23.033C22.4056 22.9261 22.7464 22.8958 22.9329 22.8847C23.1044 22.8744 23.2525 22.876 23.2207 22.876V32.876ZM23.7712 32.8462C26.0213 32.6062 28.1257 31.618 29.7475 30.0398L22.7733 22.8731C22.7563 22.8897 22.7343 22.9001 22.7107 22.9026L23.7712 32.8462ZM29.751 30.0364L33.2262 26.6479L26.245 19.4881L22.7698 22.8766L29.751 30.0364ZM33.219 26.6549C34.0294 25.8679 34.586 24.8566 34.8173 23.7509L25.0291 21.7034C25.2061 20.8573 25.632 20.0834 26.2522 19.4811L33.219 26.6549ZM34.8173 23.7509C35.0485 22.6452 34.944 21.4957 34.517 20.4498L25.2589 24.2297C24.9321 23.4294 24.8521 22.5496 25.0291 21.7034L34.8173 23.7509ZM15.2838 24.5531H13.9632V34.5531H15.2838V24.5531ZM18.9632 29.5531V24.4729H8.96316V29.5531H18.9632ZM13.9632 29.4729H15.2838V19.4729H13.9632V29.4729ZM10.2838 24.4729V29.5531H20.2838V24.4729H10.2838ZM22.2799 22.3658C22.3769 22.2714 22.5027 22.2122 22.6373 22.1976L23.7182 32.139C25.8019 31.9124 27.75 30.9955 29.2524 29.534L22.2799 22.3658ZM22.9484 22.1735L15.7634 22.5035L16.2221 32.493L23.4071 32.163L22.9484 22.1735ZM20.9927 27.4982V24.8853H10.9927V27.4982H20.9927ZM19.8137 28.1102L21.5354 26.0703L13.8935 19.6204L12.1718 21.6604L19.8137 28.1102ZM17.7145 27.8454H22.0777V17.8454H17.7145V27.8454ZM22.0668 27.8453C21.2192 27.8435 20.3976 27.5526 19.7377 27.0206L26.014 19.2354C24.9018 18.3388 23.517 17.8485 22.0885 17.8454L22.0668 27.8453ZM19.7377 27.0206C19.0778 26.4886 18.6191 25.7474 18.4375 24.9194L28.2052 22.7766C27.8991 21.3812 27.1261 20.132 26.014 19.2354L19.7377 27.0206ZM22.1294 18.9922L18.5375 19.8739L20.9214 29.5856L24.5133 28.7038L22.1294 18.9922ZM18.5312 19.8754C17.2623 20.1886 16.1517 20.9552 15.4089 22.0305L23.6366 27.7142C22.9921 28.6472 22.0286 29.3123 20.9277 29.584L18.5312 19.8754ZM15.4089 22.0305C14.666 23.1059 14.3421 24.4159 14.4983 25.7135L24.4267 24.5189C24.5621 25.6447 24.2811 26.7813 23.6366 27.7142L15.4089 22.0305ZM14.4983 25.7135C14.6544 27.0111 15.2798 28.2069 16.2566 29.0754L22.9012 21.6022C23.7487 22.3557 24.2912 23.3931 24.4267 24.5189L14.4983 25.7135ZM16.2566 29.0754C17.2333 29.9438 18.494 30.425 19.801 30.4283L19.826 20.4283C20.96 20.4312 22.0538 20.8487 22.9012 21.6022L16.2566 29.0754ZM19.8069 30.4283C20.2442 30.4289 20.6799 30.3759 21.1042 30.2704L18.6926 20.5656C19.0613 20.4739 19.44 20.4278 19.8201 20.4283L19.8069 30.4283ZM21.0905 30.2738L24.9402 29.3287L22.556 19.6171L18.7063 20.5622L21.0905 30.2738ZM23.7481 29.4729H24.8379V19.4729H23.7481V29.4729ZM24.8344 29.4729C25.7497 29.4735 26.6498 29.2395 27.4488 28.7933L22.5729 20.0626C23.2662 19.6754 24.0472 19.4723 24.8413 19.4729L24.8344 29.4729ZM27.4511 28.792L30.0466 27.3407L25.1662 18.6125L22.5706 20.0638L27.4511 28.792ZM30.0463 27.3409C29.7051 27.5316 29.3208 27.6319 28.9299 27.6323L28.9213 17.6323C27.6066 17.6334 26.314 17.9708 25.1664 18.6124L30.0463 27.3409ZM28.9256 27.6323H29.1687V17.6323H28.9256V27.6323ZM25.6781 19.0524L22.2756 22.37L29.2568 29.5298L32.6593 26.2122L25.6781 19.0524Z" fill="#42459C" mask="url(#path-2-inside-1)"/>
<mask id="path-4-inside-2" fill="white">
<path d="M22.9638 20.7898C24.0029 20.7898 25.0186 20.4817 25.8825 19.9045C26.7464 19.3272 27.4198 18.5067 27.8174 17.5468C28.215 16.5869 28.319 15.5306 28.1163 14.5115C27.9136 13.4924 27.4133 12.5564 26.6786 11.8217C25.9439 11.087 25.0078 10.5866 23.9887 10.3839C22.9697 10.1812 21.9134 10.2852 20.9534 10.6829C19.9935 11.0805 19.173 11.7538 18.5958 12.6177C18.0185 13.4817 17.7104 14.4974 17.7104 15.5364C17.712 16.9292 18.266 18.2645 19.2509 19.2494C20.2357 20.2342 21.571 20.7882 22.9638 20.7898V20.7898ZM22.9638 10.9919C23.8626 10.9919 24.7413 11.2584 25.4886 11.7578C26.236 12.2571 26.8184 12.9669 27.1624 13.7973C27.5064 14.6277 27.5964 15.5414 27.421 16.423C27.2457 17.3045 26.8128 18.1143 26.1773 18.7498C25.5417 19.3854 24.732 19.8182 23.8504 19.9936C22.9689 20.1689 22.0551 20.0789 21.2247 19.735C20.3943 19.391 19.6846 18.8085 19.1852 18.0612C18.6859 17.3138 18.4193 16.4352 18.4193 15.5364C18.4207 14.3316 18.9 13.1764 19.7519 12.3245C20.6039 11.4725 21.759 10.9933 22.9638 10.9919V10.9919Z"/>
</mask>
<path d="M17.7104 15.5364L7.71039 15.5364L7.7104 15.5479L17.7104 15.5364ZM18.4193 15.5364L8.41933 15.5248V15.5364H18.4193ZM22.9638 30.7898C25.9807 30.7898 28.9298 29.8952 31.4382 28.2192L20.3268 11.5898C21.1073 11.0682 22.025 10.7898 22.9638 10.7898L22.9638 30.7898ZM31.4382 28.2192C33.9466 26.5431 35.9017 24.1608 37.0562 21.3736L18.5786 13.72C18.9378 12.8526 19.5462 12.1113 20.3268 11.5898L31.4382 28.2192ZM37.0562 21.3736C38.2107 18.5864 38.5127 15.5195 37.9242 12.5606L18.3085 16.4624C18.1253 15.5417 18.2193 14.5873 18.5786 13.72L37.0562 21.3736ZM37.9242 12.5606C37.3356 9.60173 35.8829 6.88382 33.7496 4.75059L19.6075 18.8927C18.9437 18.2289 18.4916 17.3831 18.3085 16.4624L37.9242 12.5606ZM33.7496 4.75059C31.6164 2.61736 28.8985 1.16461 25.9396 0.576052L22.0378 20.1918C21.1171 20.0086 20.2713 19.5565 19.6075 18.8927L33.7496 4.75059ZM25.9396 0.576052C22.9808 -0.0125051 19.9138 0.289563 17.1266 1.44406L24.7803 19.9217C23.9129 20.2809 22.9586 20.3749 22.0378 20.1918L25.9396 0.576052ZM17.1266 1.44406C14.3394 2.59856 11.9571 4.55363 10.2811 7.06204L26.9105 18.1734C26.3889 18.954 25.6476 19.5624 24.7803 19.9217L17.1266 1.44406ZM10.2811 7.06204C8.60499 9.57046 7.7104 12.5196 7.7104 15.5364L27.7104 15.5364C27.7104 16.4752 27.432 17.3929 26.9105 18.1734L10.2811 7.06204ZM7.7104 15.5479C7.71507 19.5889 9.3224 23.463 12.1798 26.3204L26.3219 12.1783C27.2096 13.066 27.7089 14.2695 27.7104 15.5249L7.7104 15.5479ZM12.1798 26.3204C15.0372 29.1778 18.9113 30.7852 22.9523 30.7898L22.9754 10.7898C24.2307 10.7913 25.4343 11.2906 26.3219 12.1783L12.1798 26.3204ZM22.9638 20.9919C21.8848 20.9919 20.8301 20.6719 19.9329 20.0725L31.0443 3.44309C28.6525 1.84492 25.8405 0.9919 22.9638 0.9919V20.9919ZM19.9329 20.0725C19.0358 19.473 18.3365 18.621 17.9236 17.6241L36.4012 9.97046C35.3004 7.31281 33.4362 5.04127 31.0443 3.44309L19.9329 20.0725ZM17.9236 17.6241C17.5107 16.6273 17.4027 15.5304 17.6132 14.4721L37.2289 18.3739C37.7901 15.5525 37.502 12.6281 36.4012 9.97046L17.9236 17.6241ZM17.6132 14.4721C17.8237 13.4138 18.3432 12.4417 19.1062 11.6788L33.2483 25.8209C35.2824 23.7868 36.6677 21.1952 37.2289 18.3739L17.6132 14.4721ZM19.1062 11.6788C19.8692 10.9158 20.8413 10.3962 21.8995 10.1857L25.8013 29.8014C28.6227 29.2402 31.2143 27.855 33.2483 25.8209L19.1062 11.6788ZM21.8995 10.1857C22.9578 9.97522 24.0547 10.0833 25.0516 10.4962L17.3979 28.9738C20.0556 30.0746 22.98 30.3626 25.8013 29.8014L21.8995 10.1857ZM25.0516 10.4962C26.0484 10.9091 26.9005 11.6083 27.4999 12.5055L10.8705 23.6169C12.4687 26.0087 14.7402 27.8729 17.3979 28.9738L25.0516 10.4962ZM27.4999 12.5055C28.0994 13.4026 28.4193 14.4574 28.4193 15.5364H8.41933C8.41933 18.413 9.27235 21.2251 10.8705 23.6169L27.4999 12.5055ZM28.4193 15.548C28.4177 16.9913 27.8436 18.375 26.823 19.3956L12.6809 5.25342C9.95637 7.97791 8.4238 11.6718 8.41934 15.5248L28.4193 15.548ZM26.823 19.3956C25.8024 20.4161 24.4187 20.9902 22.9754 20.9919L22.9523 0.991906C19.0993 0.996364 15.4053 2.52894 12.6809 5.25342L26.823 19.3956Z" fill="#42459C" mask="url(#path-4-inside-2)"/>
<mask id="path-6-inside-3" fill="white">
<path d="M22.0329 16.8249C22.0329 16.7308 21.9956 16.6407 21.9291 16.5742C21.8626 16.5077 21.7724 16.4704 21.6784 16.4704C21.5844 16.4704 21.4943 16.5077 21.4278 16.5742C21.3613 16.6407 21.324 16.7308 21.324 16.8249C21.3245 17.1981 21.452 17.5601 21.6855 17.8513C21.919 18.1425 22.2446 18.3457 22.6088 18.4275V19.0234C22.6088 19.1174 22.6461 19.2075 22.7126 19.274C22.7791 19.3405 22.8692 19.3778 22.9632 19.3778C23.0572 19.3778 23.1474 19.3405 23.2139 19.274C23.2804 19.2075 23.3177 19.1174 23.3177 19.0234V18.4293C23.6839 18.3496 24.0118 18.1469 24.247 17.8551C24.4821 17.5633 24.6104 17.1997 24.6104 16.825C24.6104 16.4502 24.4821 16.0867 24.247 15.7948C24.0118 15.503 23.6839 15.3003 23.3177 15.2206V13.3833C23.4898 13.4531 23.6373 13.5726 23.7412 13.7266C23.8451 13.8806 23.9007 14.062 23.9011 14.2478C23.9011 14.3418 23.9384 14.4319 24.0049 14.4984C24.0714 14.5649 24.1615 14.6022 24.2555 14.6022C24.3495 14.6022 24.4397 14.5649 24.5062 14.4984C24.5726 14.4319 24.61 14.3418 24.61 14.2478C24.6094 13.8732 24.4811 13.51 24.2461 13.2182C24.0111 12.9265 23.6836 12.7237 23.3177 12.6433V12.0488C23.3177 11.9548 23.2804 11.8647 23.2139 11.7982C23.1474 11.7317 23.0572 11.6944 22.9632 11.6944C22.8692 11.6944 22.7791 11.7317 22.7126 11.7982C22.6461 11.8647 22.6088 11.9548 22.6088 12.0488V12.645C22.2442 12.7261 21.9182 12.929 21.6846 13.2204C21.451 13.5117 21.3236 13.874 21.3236 14.2475C21.3236 14.6209 21.451 14.9832 21.6846 15.2745C21.9182 15.5659 22.2442 15.7688 22.6088 15.85V17.6867C22.4385 17.6158 22.293 17.4962 22.1905 17.3428C22.0881 17.1895 22.0332 17.0093 22.0329 16.8249ZM23.9011 16.8249C23.9008 17.0106 23.8451 17.1921 23.7412 17.3461C23.6373 17.5 23.4899 17.6196 23.3177 17.6894V15.9606C23.4898 16.0303 23.6373 16.1498 23.7412 16.3037C23.8451 16.4577 23.9008 16.6391 23.9011 16.8249ZM22.0329 14.2478C22.0331 14.0633 22.0879 13.883 22.1904 13.7296C22.2928 13.5762 22.4384 13.4565 22.6088 13.3857V15.11C22.4385 15.0391 22.2929 14.9194 22.1905 14.766C22.088 14.6125 22.0332 14.4323 22.0329 14.2478Z"/>
</mask>
<path d="M22.0329 16.8249H12.0329V16.8338L12.0329 16.8427L22.0329 16.8249ZM21.324 16.8249H11.324V16.8327L11.324 16.8406L21.324 16.8249ZM22.6088 18.4275H32.6088V10.4234L24.7991 8.67028L22.6088 18.4275ZM22.6088 19.0234L12.6088 19.0234L22.6088 19.0234ZM23.3177 18.4293L21.1906 8.65812L13.3177 10.372L13.3177 18.4293H23.3177ZM23.3177 15.2206H13.3177V23.2779L21.1906 24.9918L23.3177 15.2206ZM23.3177 13.3833L27.0758 4.1163L13.3177 -1.46315V13.3833H23.3177ZM23.9011 14.2478H33.9011V14.2393L33.901 14.2309L23.9011 14.2478ZM24.61 14.2478H34.61V14.2404L34.61 14.233L24.61 14.2478ZM23.3177 12.6433H13.3177V20.6857L21.1729 22.4106L23.3177 12.6433ZM23.3177 12.0488H13.3177H23.3177ZM22.6088 12.645L24.7808 22.4062L32.6088 20.6644V12.645H22.6088ZM22.6088 15.85H32.6088V7.83056L24.7808 6.0887L22.6088 15.85ZM22.6088 17.6867L18.7651 26.9185L32.6088 32.6823V17.6867H22.6088ZM23.9011 16.8249L33.901 16.8402L33.9011 16.8245L33.901 16.8087L23.9011 16.8249ZM23.3177 17.6894H13.3177V32.5334L27.0745 26.9569L23.3177 17.6894ZM23.3177 15.9606L27.0731 6.6925L13.3177 1.11883V15.9606H23.3177ZM22.0329 14.2478L12.0329 14.2364L12.0329 14.2496L12.0329 14.2627L22.0329 14.2478ZM22.6088 13.3857H32.6088V-1.60286L18.7691 4.15221L22.6088 13.3857ZM22.6088 15.11L18.7638 24.3413L32.6088 30.108V15.11H22.6088ZM32.0329 16.8249C32.0329 14.0787 30.942 11.445 29.0001 9.50313L14.858 23.6453C13.0491 21.8364 12.0329 19.383 12.0329 16.8249H32.0329ZM29.0001 9.50313C27.0583 7.56128 24.4246 6.47038 21.6784 6.47038V26.4704C19.1203 26.4704 16.6669 25.4542 14.858 23.6453L29.0001 9.50313ZM21.6784 6.47038C18.9323 6.47038 16.2986 7.56128 14.3567 9.50313L28.4988 23.6453C26.6899 25.4542 24.2366 26.4704 21.6784 26.4704V6.47038ZM14.3567 9.50313C12.4149 11.445 11.324 14.0787 11.324 16.8249H31.324C31.324 19.383 30.3077 21.8364 28.4988 23.6453L14.3567 9.50313ZM11.324 16.8406C11.3281 19.4827 12.2306 22.0449 13.8833 24.1063L29.4878 11.5963C30.6735 13.0753 31.321 14.9135 31.3239 16.8091L11.324 16.8406ZM13.8833 24.1063C15.5359 26.1678 17.8405 27.6059 20.4184 28.1846L24.7991 8.67028C26.6486 9.08548 28.302 10.1173 29.4878 11.5963L13.8833 24.1063ZM12.6088 18.4275V19.0234H32.6088V18.4275H12.6088ZM12.6088 19.0234C12.6088 21.7695 13.6996 24.4032 15.6415 26.3451L29.7836 12.2029C31.5926 14.0119 32.6088 16.4653 32.6088 19.0234L12.6088 19.0234ZM15.6415 26.3451C17.5834 28.287 20.2172 29.3778 22.9632 29.3778V9.37784C25.5213 9.37784 27.9747 10.394 29.7836 12.2029L15.6415 26.3451ZM22.9632 29.3778C25.7094 29.3778 28.3431 28.287 30.2849 26.3451L16.1428 12.2029C17.9517 10.394 20.4051 9.37784 22.9632 9.37784V29.3778ZM30.2849 26.3451C32.2268 24.4033 33.3177 21.7696 33.3177 19.0234H13.3177C13.3177 16.4652 14.3339 14.0118 16.1428 12.2029L30.2849 26.3451ZM33.3177 19.0234V18.4293H13.3177V19.0234H33.3177ZM25.4448 28.2004C28.0414 27.6352 30.3665 26.1985 32.0339 24.1292L16.4601 11.581C17.6571 10.0953 19.3264 9.06395 21.1906 8.65812L25.4448 28.2004ZM32.0339 24.1292C33.7012 22.0599 34.6104 19.4824 34.6104 16.825H14.6104C14.6104 14.9171 15.2631 13.0666 16.4601 11.581L32.0339 24.1292ZM34.6104 16.825C34.6104 14.1675 33.7012 11.59 32.0339 9.52068L16.4601 22.0689C15.2631 20.5833 14.6104 18.7328 14.6104 16.825H34.6104ZM32.0339 9.52068C30.3665 7.45137 28.0414 6.01474 25.4448 5.44947L21.1906 24.9918C19.3264 24.586 17.6571 23.5546 16.4601 22.0689L32.0339 9.52068ZM33.3177 15.2206V13.3833H13.3177V15.2206H33.3177ZM19.5596 22.6502C17.8898 21.9731 16.4597 20.8137 15.4519 19.3201L32.0305 8.13304C30.8148 6.3315 29.0899 4.93307 27.0758 4.1163L19.5596 22.6502ZM15.4519 19.3201C14.444 17.8265 13.9041 16.0665 13.9011 14.2646L33.901 14.2309C33.8974 12.0575 33.2461 9.93459 32.0305 8.13304L15.4519 19.3201ZM13.9011 14.2478C13.9011 16.994 14.992 19.6277 16.9338 21.5695L31.0759 7.42734C32.8848 9.2362 33.9011 11.6896 33.9011 14.2478H13.9011ZM16.9338 21.5695C18.8757 23.5113 21.5093 24.6022 24.2555 24.6022V4.60223C26.8137 4.60223 29.2671 5.61845 31.0759 7.42734L16.9338 21.5695ZM24.2555 24.6022C27.0017 24.6022 29.6354 23.5113 31.5772 21.5695L17.4351 7.42734C19.244 5.61845 21.6974 4.60223 24.2555 4.60223V24.6022ZM31.5772 21.5695C33.5191 19.6277 34.61 16.994 34.61 14.2478H14.61C14.61 11.6896 15.6262 9.2362 17.4351 7.42734L31.5772 21.5695ZM34.61 14.233C34.6061 11.5814 33.6973 9.01047 32.034 6.9454L16.4582 19.491C15.2648 18.0094 14.6128 16.1649 14.61 14.2625L34.61 14.233ZM32.034 6.9454C30.3707 4.88034 28.0524 3.44476 25.4625 2.87604L21.1729 22.4106C19.3148 22.0026 17.6515 20.9726 16.4582 19.491L32.034 6.9454ZM33.3177 12.6433V12.0488H13.3177V12.6433H33.3177ZM33.3177 12.0488C33.3177 9.30262 32.2268 6.66893 30.2849 4.72712L16.1428 18.8693C14.3339 17.0604 13.3177 14.607 13.3177 12.0488L33.3177 12.0488ZM30.2849 4.72712C28.3431 2.78529 25.7094 1.69437 22.9632 1.69437V21.6944C20.4051 21.6944 17.9517 20.6781 16.1428 18.8693L30.2849 4.72712ZM22.9632 1.69437C20.2171 1.69437 17.5834 2.78526 15.6415 4.72712L29.7836 18.8693C27.9747 20.6782 25.5214 21.6944 22.9632 21.6944V1.69437ZM15.6415 4.72712C13.6996 6.669 12.6088 9.30272 12.6088 12.0488H32.6088C32.6088 14.6069 31.5926 17.0603 29.7836 18.8693L15.6415 4.72712ZM12.6088 12.0488V12.645H32.6088V12.0488H12.6088ZM20.4367 2.88369C17.8517 3.4589 15.5401 4.89824 13.8833 6.9642L29.4859 19.4766C28.2964 20.9598 26.6367 21.9932 24.7808 22.4062L20.4367 2.88369ZM13.8833 6.9642C12.2265 9.03017 11.3236 11.5992 11.3236 14.2475H31.3236C31.3236 16.1488 30.6754 17.9933 29.4859 19.4766L13.8833 6.9642ZM11.3236 14.2475C11.3236 16.8957 12.2265 19.4647 13.8833 21.5307L29.4859 9.01835C30.6754 10.5016 31.3236 12.3461 31.3236 14.2475H11.3236ZM13.8833 21.5307C15.5401 23.5967 17.8517 25.036 20.4367 25.6112L24.7808 6.0887C26.6367 6.50168 28.2964 7.53506 29.4859 9.01835L13.8833 21.5307ZM12.6088 15.85V17.6867H32.6088V15.85H12.6088ZM26.4524 8.4549C28.1023 9.14184 29.5124 10.3012 30.5053 11.7873L13.8757 22.8984C15.0736 24.6912 16.7747 26.0898 18.7651 26.9185L26.4524 8.4549ZM30.5053 11.7873C31.4982 13.2733 32.0297 15.0198 32.0329 16.807L12.0329 16.8427C12.0368 18.9988 12.6779 21.1056 13.8757 22.8984L30.5053 11.7873ZM13.9011 16.8095C13.9038 15.0072 14.4438 13.2466 15.4519 11.7525L32.0305 22.9396C33.2465 21.1376 33.8977 19.0141 33.901 16.8402L13.9011 16.8095ZM15.4519 11.7525C16.4601 10.2585 17.8906 9.09893 19.5609 8.42184L27.0745 26.9569C29.0891 26.1402 30.8146 24.7416 32.0305 22.9396L15.4519 11.7525ZM33.3177 17.6894V15.9606H13.3177V17.6894H33.3177ZM19.5623 25.2286C17.8917 24.5517 16.4609 23.3922 15.4525 21.8982L32.0299 10.7093C30.8137 8.90739 29.0879 7.5089 27.0731 6.6925L19.5623 25.2286ZM15.4525 21.8982C14.4441 20.4042 13.904 18.6435 13.9011 16.841L33.901 16.8087C33.8975 14.6348 33.2461 12.5112 32.0299 10.7093L15.4525 21.8982ZM32.0329 14.2591C32.0309 16.0482 31.4995 17.7966 30.5058 19.2842L13.875 8.17491C12.6763 9.96938 12.0354 12.0784 12.0329 14.2364L32.0329 14.2591ZM30.5058 19.2842C29.512 20.7719 28.1003 21.9323 26.4484 22.6192L18.7691 4.15221C16.7766 4.9808 15.0737 6.38044 13.875 8.17491L30.5058 19.2842ZM12.6088 13.3857V15.11H32.6088V13.3857H12.6088ZM26.4537 5.87877C28.1037 6.56603 29.5137 7.72578 30.5064 9.2122L13.8745 20.3197C15.0721 22.113 16.7732 23.5122 18.7638 24.3413L26.4537 5.87877ZM30.5064 9.2122C31.4991 10.6986 32.0302 12.4453 32.0329 14.2328L12.0329 14.2627C12.0361 16.4192 12.6769 18.5265 13.8745 20.3197L30.5064 9.2122Z" fill="#42459C" mask="url(#path-6-inside-3)"/>
</svg>
